<?xml version="1.0" encoding="UTF-8"?>
<svg id="Layer_1" data-name="Layer 1" xmlns="http://www.w3.org/2000/svg" viewBox="0 0 450 110.8">
  <defs>
    <style>
      .cls-1 {
        fill: #00a6c2;
        stroke-width: 0px;
      }
    </style>
  </defs>
  <path class="cls-1" d="m245.78,29.64c-9.68,0-14.62,10.8-14.62,17.18,8.4,0,21.82-1.35,21.82-10.65.07-4.5-2.85-6.53-7.2-6.53m19.12,45.23c.38.68.15,1.57-.53,1.95-3.52,2.18-8.92,5.4-18.9,5.4-14.48,0-27.75-12.38-27.75-30.75s10.8-32.62,28.5-32.62c10.12,0,18.68,5.92,18.68,17.02,0,14.93-14.55,21.23-33.53,21.23,0,4.95,4.28,13.95,15.23,13.95,6.6,0,10.05-1.95,12.3-3.45.3-.23.75-.3,1.12-.23s.75.38.9.68l3.98,6.82Zm-49.65-4.88c-.3-.75-1.12-1.05-1.88-.82-1.35.52-3.3,1.12-6,1.12-6.45,0-8.7-5.18-8.7-12.53v-26.4h13.5c.75,0,1.35-.6,1.43-1.27l.9-8.78c.08-.38-.07-.82-.38-1.12-.3-.3-.67-.45-1.05-.45h-14.33V1.44c0-.38-.15-.82-.45-1.05-.3-.3-.68-.38-1.12-.38l-10.72.9c-.75.07-1.35.68-1.35,1.43v55.65c0,20.02,13.27,24.38,21.07,24.38,5.4,0,9.07-1.35,11.62-2.48.75-.3,1.05-1.12.75-1.88l-3.3-8.02Zm146.03,0c-.3-.75-1.12-1.05-1.88-.82-1.35.52-3.3,1.12-6,1.12-6.45,0-8.7-5.18-8.7-12.53v-26.4h13.5c.75,0,1.35-.6,1.42-1.27l.9-8.78c.07-.38-.07-.82-.38-1.12s-.68-.45-1.05-.45h-14.32V1.44c0-.38-.15-.82-.45-1.05-.3-.3-.68-.38-1.12-.38l-10.73.9c-.75.07-1.35.68-1.35,1.43v55.65c0,20.02,13.28,24.38,21.08,24.38,5.4,0,9.07-1.35,11.62-2.48.75-.3,1.05-1.12.75-1.88l-3.3-8.02ZM381,1.44c0-.38-.15-.82-.45-1.05-.3-.3-.68-.45-1.12-.38l-10.8.9c-.75.07-1.35.68-1.35,1.43v58.27c0,14.93,10.12,21.68,20.25,21.68,2.55,0,4.5-.3,5.62-.53.75-.15,1.27-.9,1.12-1.65l-1.5-8.77c-.15-.75-.9-1.28-1.65-1.2-.67.08-1.42.23-2.17.23-4.58,0-8.03-3.68-8.03-9.68V1.44h.07Zm37.73,98.25c11.4,0,12.07-15.3,12.07-22.8-1.2,0-19.65,6.3-19.65,16.05,0,2.85,2.4,6.75,7.57,6.75m30.82-37.72c.3.3.45.67.45,1.05v8.4c0,.75-.6,1.35-1.35,1.43h-.07.22l-4.5.67c.3-.07.53-.07.82-.15l-.82.15v8.03c0,9.6-3.97,29.25-25.8,29.25-9.38,0-20.1-6.53-20.1-18.23,0-7.2,4.2-12.97,9.97-17.4-7.12-2.55-13.05-9.98-13.05-20.4V21.1c0-.83.67-1.43,1.42-1.43h10.73c.38,0,.75.15,1.05.45s.45.68.45,1.05v33.22c0,6.6,4.88,10.88,9.68,10.88,5.93,0,12.15-3.45,12.15-14.85v-29.18c0-.82.68-1.43,1.43-1.43h10.73c.82,0,1.42.68,1.42,1.43v40.88c1.05-.3,2.25-.45,4.12-.52.38-.08.75.07,1.05.38m-126.68,2.32v-22.95c0-22.8-24.15-28.12-36.45-14.78l-.97-3.22c-.15-.6-.75-1.05-1.35-1.05h-9.68c-.45,0-.82.15-1.05.52-.3.3-.38.75-.38,1.12.38,2.62.98,7.95.98,11.78v44.7c0,.38.15.75.45,1.05.3.3.6.45,1.05.45h10.73c.82,0,1.42-.68,1.42-1.43v-36c0-17.85,21.75-18.15,21.75-2.7v20.18c0,5.02.75,15.07.98,18.67.07.75.68,1.35,1.43,1.35h10.72c.38,0,.83-.15,1.05-.45.3-.3.45-.68.38-1.12-.38-3.68-1.05-12.45-1.05-16.12m-145.8,0v-22.95c0-22.8-24.15-28.12-36.45-14.78l-.97-3.22c-.15-.6-.75-1.05-1.35-1.05h-9.68c-.45,0-.82.15-1.05.52-.3.3-.38.75-.38,1.12.38,2.62.97,7.95.97,11.78v44.7c0,.38.15.75.45,1.05.3.3.68.45,1.05.45h10.73c.82,0,1.43-.68,1.43-1.43v-36c0-17.85,21.75-18.15,21.75-2.7v20.18c0,5.02.75,15.07.97,18.67.07.75.68,1.35,1.43,1.35h10.73c.38,0,.82-.15,1.05-.45.3-.3.45-.68.38-1.12-.45-3.68-1.05-12.45-1.05-16.12m-70.88-13.8c0,11.02-2.85,20.93-12.3,20.93-9.98,0-12.45-9.82-12.45-20.93s3.52-21.15,12.45-21.15,12.3,9.6,12.3,21.15m-12.3-31.65c-11.7,0-26.85,6.9-26.85,31.65,0,22.8,11.7,31.8,26.85,31.8s26.85-8.93,26.85-31.8c-.07-24.75-15.22-31.65-26.85-31.65M0,41.12C0,27.25,10.05,1.89,40.5,1.89c10.35,0,17.85,3.15,20.55,4.58.68.3.98,1.12.68,1.8l-3.3,8.7c-.15.38-.45.67-.82.82-.38.15-.82.15-1.12-.07-2.4-1.12-7.8-3.15-16.43-3.15-14.1,0-25.65,11.18-25.65,26.48,0,12.45,6.52,28.05,26.32,28.05,8.18,0,15.15-2.33,18.07-3.37.38-.15.75-.15,1.12.07.38.15.6.45.75.82l3.07,8.85c.23.67-.07,1.42-.67,1.72-2.78,1.5-10.73,5.18-21.9,5.18C14.25,82.3,0,62.27,0,41.12"/>
</svg>